<svg fill="none" height="54" viewBox="0 0 196 54" width="196" xmlns="http://www.w3.org/2000/svg" xmlns:xlink="http://www.w3.org/1999/xlink"><filter id="a" color-interpolation-filters="sRGB" filterUnits="userSpaceOnUse" height="57" width="54" x="0" y="-3"><feFlood flood-opacity="0" result="BackgroundImageFix"/><feColorMatrix in="SourceAlpha" result="hardAlpha" type="matrix" values="0 0 0 0 0 0 0 0 0 0 0 0 0 0 0 0 0 0 127 0"/><feOffset dy="1"/><feGaussianBlur stdDeviation=".5"/><feComposite in2="hardAlpha" operator="out"/><feColorMatrix type="matrix" values="0 0 0 0 0.162923 0 0 0 0 0.162923 0 0 0 0 0.162923 0 0 0 0.08 0"/><feBlend in2="BackgroundImageFix" mode="normal" result="effect1_dropShadow_3046_38728"/><feColorMatrix in="SourceAlpha" result="hardAlpha" type="matrix" values="0 0 0 0 0 0 0 0 0 0 0 0 0 0 0 0 0 0 127 0"/><feMorphology in="SourceAlpha" operator="erode" radius="1" result="effect2_dropShadow_3046_38728"/><feOffset dy="3"/><feGaussianBlur stdDeviation="2"/><feComposite in2="hardAlpha" operator="out"/><feColorMatrix type="matrix" values="0 0 0 0 0.164706 0 0 0 0 0.164706 0 0 0 0 0.164706 0 0 0 0.14 0"/><feBlend in2="effect1_dropShadow_3046_38728" mode="normal" result="effect2_dropShadow_3046_38728"/><feBlend in="SourceGraphic" in2="effect2_dropShadow_3046_38728" mode="normal" result="shape"/><feColorMatrix in="SourceAlpha" result="hardAlpha" type="matrix" values="0 0 0 0 0 0 0 0 0 0 0 0 0 0 0 0 0 0 127 0"/><feOffset dy="-3"/><feGaussianBlur stdDeviation="1.5"/><feComposite in2="hardAlpha" k2="-1" k3="1" operator="arithmetic"/><feColorMatrix type="matrix" values="0 0 0 0 0 0 0 0 0 0 0 0 0 0 0 0 0 0 0.1 0"/><feBlend in2="shape" mode="normal" result="effect3_innerShadow_3046_38728"/><feColorMatrix in="SourceAlpha" result="hardAlpha" type="matrix" values="0 0 0 0 0 0 0 0 0 0 0 0 0 0 0 0 0 0 127 0"/><feOffset dy="3"/><feGaussianBlur stdDeviation="1.5"/><feComposite in2="hardAlpha" k2="-1" k3="1" operator="arithmetic"/><feColorMatrix type="matrix" values="0 0 0 0 1 0 0 0 0 1 0 0 0 0 1 0 0 0 0.1 0"/><feBlend in2="effect3_innerShadow_3046_38728" mode="normal" result="effect4_innerShadow_3046_38728"/><feColorMatrix in="SourceAlpha" result="hardAlpha" type="matrix" values="0 0 0 0 0 0 0 0 0 0 0 0 0 0 0 0 0 0 127 0"/><feMorphology in="SourceAlpha" operator="erode" radius="1" result="effect5_innerShadow_3046_38728"/><feOffset/><feComposite in2="hardAlpha" k2="-1" k3="1" operator="arithmetic"/><feColorMatrix type="matrix" values="0 0 0 0 0.0627451 0 0 0 0 0.0941176 0 0 0 0 0.156863 0 0 0 0.24 0"/><feBlend in2="effect4_innerShadow_3046_38728" mode="normal" result="effect5_innerShadow_3046_38728"/></filter><filter id="b" color-interpolation-filters="sRGB" filterUnits="userSpaceOnUse" height="42" width="41.25" x="6.875" y="5.25"><feFlood flood-opacity="0" result="BackgroundImageFix"/><feColorMatrix in="SourceAlpha" result="hardAlpha" type="matrix" values="0 0 0 0 0 0 0 0 0 0 0 0 0 0 0 0 0 0 127 0"/><feMorphology in="SourceAlpha" operator="erode" radius="1.5" result="effect1_dropShadow_3046_38728"/><feOffset dy="2.25"/><feGaussianBlur stdDeviation="2.25"/><feComposite in2="hardAlpha" operator="out"/><feColorMatrix type="matrix" values="0 0 0 0 0.141176 0 0 0 0 0.141176 0 0 0 0 0.141176 0 0 0 0.1 0"/><feBlend in2="BackgroundImageFix" mode="normal" result="effect1_dropShadow_3046_38728"/><feBlend in="SourceGraphic" in2="effect1_dropShadow_3046_38728" mode="normal" result="shape"/></filter><linearGradient id="c" gradientUnits="userSpaceOnUse" x1="24" x2="26" y1=".000001" y2="48"><stop offset="0" stop-color="#fff" stop-opacity="0"/><stop offset="1" stop-color="#fff" stop-opacity=".12"/></linearGradient><linearGradient id="d"><stop offset="0" stop-color="#fff" stop-opacity=".8"/><stop offset="1" stop-color="#fff" stop-opacity=".5"/></linearGradient><linearGradient id="e" gradientUnits="userSpaceOnUse" x1="21.4671" x2="21.4671" xlink:href="#d" y1="9.51758" y2="38.4881"/><linearGradient id="f" gradientUnits="userSpaceOnUse" x1="38.7714" x2="38.7714" xlink:href="#d" y1="15.2849" y2="33.2849"/><linearGradient id="g" gradientUnits="userSpaceOnUse" x1="27" x2="27" y1="0" y2="48"><stop offset="0" stop-color="#fff" stop-opacity=".12"/><stop offset="1" stop-color="#fff" stop-opacity="0"/></linearGradient><clipPath id="h"><rect height="48" rx="12" width="48" x="3"/></clipPath><g filter="url(#a)"><g clip-path="url(#h)"><rect fill="#dd2590" height="48" rx="12" width="48" x="3"/><path d="m0 0h48v48h-48z" fill="url(#c)" transform="translate(3)"/><g filter="url(#b)"><path d="m28.6029 11.2749c-2.3431-2.34311-6.1421-2.34311-8.4853 0l-8.4852 8.4853c-2.34319 2.3432-2.34319 6.1422 0 8.4853l8.4852 8.4853c2.3432 2.3431 6.1422 2.3431 8.4853 0l4.0487-4.0487c-3.3704-1.3003-5.7615-4.5708-5.7615-8.3998 0-3.9816 2.5854-7.3592 6.169-8.5457-.07-.0737-.1412-.1467-.2135-.219z" fill="url(#e)"/><path d="m32.6523 32.6848c1.0048.3876 2.0966.6001 3.2381.6001 4.9705 0 9-4.0294 9-9s-4.0295-9-9-9c-.9889 0-1.9405.1595-2.8305.4541 4.4717 4.7011 4.4006 12.1377-.2135 16.7517z" fill="url(#f)" opacity=".5"/></g></g><rect height="46" rx="11" stroke="url(#g)" stroke-width="2" width="46" x="4" y="1"/></g><g fill="#0a0d12"><path d="m77.607 33-1.458-4.158h-7.533l-1.485 4.158h-4.131l7.29-19.386h4.482l7.236 19.386zm-5.184-14.904-2.646 7.479h5.238z"/><path d="m86.7457 33h-3.78v-19.386h3.78z"/><path d="m103.422 25.791c0 4.266-2.511 7.479-6.3988 7.479-1.701 0-3.159-.729-4.239-2.133v7.074h-3.753v-19.629h3.456v2.106c1.107-1.539 2.7-2.376 4.536-2.376 3.8878 0 6.3988 3.24 6.3988 7.479zm-3.8608 0c0-2.7-1.539-4.158-3.375-4.158s-3.375 1.431-3.375 4.158 1.539 4.131 3.375 4.131 3.375-1.377 3.375-4.131z"/><path d="m108.5 25.143v7.857h-3.753v-19.386h3.753v6.858c.999-1.323 2.241-2.16 4.131-2.16 2.889 0 4.887 1.89 4.887 5.373v9.315h-3.726v-8.046c0-2.133-.837-3.321-2.538-3.321-1.485 0-2.754 1.188-2.754 3.51z"/><path d="m128.258 33v-1.782c-.945 1.35-2.376 2.052-4.347 2.052-2.997 0-4.995-1.755-4.995-4.455 0-2.808 2.268-4.32 6.48-4.32.81 0 1.512.054 2.403.162v-.864c0-1.62-.918-2.565-2.484-2.565-1.62 0-2.592.945-2.727 2.565h-3.375c.216-3.321 2.619-5.481 6.102-5.481 3.78 0 5.994 2.079 5.994 5.616v9.072zm-5.805-4.293c0 1.215.864 1.971 2.268 1.971 1.917 0 3.078-1.053 3.078-2.727v-1.026c-.891-.135-1.512-.189-2.16-.189-2.133 0-3.186.675-3.186 1.971z"/><path d="m147.157 33-3.618-13.554-3.618 13.554h-4.158l-4.968-19.386h3.996l3.132 13.149 3.564-13.149h4.185l3.456 13.203 3.159-13.203h4.023l-4.995 19.386z"/><path d="m164.726 33v-1.782c-.945 1.35-2.376 2.052-4.347 2.052-2.997 0-4.995-1.755-4.995-4.455 0-2.808 2.268-4.32 6.48-4.32.81 0 1.512.054 2.403.162v-.864c0-1.62-.918-2.565-2.484-2.565-1.62 0-2.592.945-2.727 2.565h-3.375c.216-3.321 2.619-5.481 6.102-5.481 3.78 0 5.994 2.079 5.994 5.616v9.072zm-5.805-4.293c0 1.215.864 1.971 2.268 1.971 1.917 0 3.078-1.053 3.078-2.727v-1.026c-.891-.135-1.512-.189-2.16-.189-2.133 0-3.186.675-3.186 1.971z"/><path d="m182.417 18.582-5.292 14.418h-4.104l-5.319-14.418h4.05l3.429 10.152 3.456-10.152z"/><path d="m188.747 33.243c-4.32 0-7.209-2.997-7.209-7.506 0-4.293 2.997-7.425 7.155-7.425 4.563 0 7.587 3.699 6.912 8.397h-10.233c.243 2.349 1.377 3.645 3.294 3.645 1.647 0 2.754-.81 3.186-2.241h3.726c-.81 3.267-3.321 5.13-6.831 5.13zm-.135-12.177c-1.755 0-2.862 1.134-3.186 3.267h6.21c-.108-1.998-1.242-3.267-3.024-3.267z"/></g></svg>